<svg width="35" height="35" viewBox="0 0 35 35" fill="none" xmlns="http://www.w3.org/2000/svg">
<g id="SVGRepo_iconCarrier">
<path id="Vector" d="M33.9999 23.5C33.9999 29.305 29.3049 34 23.4999 34L25.0749 31.375" stroke="black" stroke-opacity="0.7" stroke-linecap="round" stroke-linejoin="round"/>
<path id="Vector_2" d="M1 11.5C1 5.695 5.695 1 11.5 1L9.925 3.625" stroke="black" stroke-opacity="0.7" stroke-linecap="round" stroke-linejoin="round"/>
<path id="Vector_3" d="M21.7751 22.5398C21.7751 27.6548 17.6351 31.7946 12.5201 31.7946C7.40507 31.7946 3.26508 27.6548 3.26508 22.5398C3.26508 17.4248 7.40507 13.2847 12.5201 13.2847C12.7601 13.2847 12.9851 13.2997 13.2401 13.3147C17.7851 13.6597 21.4151 17.2897 21.7601 21.8346C21.7601 22.0596 21.7751 22.2848 21.7751 22.5398Z" stroke="black" stroke-opacity="0.7" stroke-miterlimit="10" stroke-linecap="round" stroke-linejoin="round"/>
<path id="Vector_4" d="M31.75 12.5499C31.75 17.6649 27.61 21.8049 22.495 21.8049H21.76C21.415 17.2599 17.785 13.6299 13.24 13.2849V12.5499C13.24 7.43489 17.38 3.29492 22.495 3.29492C27.61 3.29492 31.75 7.43489 31.75 12.5499Z" stroke="black" stroke-opacity="0.7" stroke-miterlimit="10" stroke-linecap="round" stroke-linejoin="round"/>
</g>
</svg>
