<svg width="64" height="64" viewBox="0 0 64 64" fill="none" xmlns="http://www.w3.org/2000/svg">
<path d="M21.708 25.5C21.708 25.201 21.9507 24.9583 22.2497 24.9583H41.7497C42.0487 24.9583 42.2913 25.201 42.2913 25.5C42.2913 25.799 42.0487 26.0417 41.7497 26.0417H22.2497C21.9507 26.0417 21.708 25.799 21.708 25.5ZM41.7497 31.4583H22.2497C21.9507 31.4583 21.708 31.701 21.708 32C21.708 32.299 21.9507 32.5417 22.2497 32.5417H41.7497C42.0487 32.5417 42.2913 32.299 42.2913 32C42.2913 31.701 42.0487 31.4583 41.7497 31.4583ZM41.7497 37.9583H22.2497C21.9507 37.9583 21.708 38.201 21.708 38.5C21.708 38.799 21.9507 39.0417 22.2497 39.0417H41.7497C42.0487 39.0417 42.2913 38.799 42.2913 38.5C42.2913 38.201 42.0487 37.9583 41.7497 37.9583Z" fill="white"/>
</svg>
