<svg width="138" height="131" viewBox="0 0 138 131" fill="none" xmlns="http://www.w3.org/2000/svg">
<path d="M21.0335 64.4948C21.0335 63.8331 21.1412 63.3177 21.3566 62.9484C21.5721 62.5753 21.949 62.3887 22.4876 62.3887C23.0223 62.3887 23.3973 62.5753 23.6127 62.9484C23.8281 63.3177 23.9359 63.8331 23.9359 64.4948C23.9359 65.1679 23.8281 65.6911 23.6127 66.0642C23.3973 66.4373 23.0223 66.6239 22.4876 66.6239C21.949 66.6239 21.5721 66.4373 21.3566 66.0642C21.1412 65.6911 21.0335 65.1679 21.0335 64.4948ZM23.4165 64.4948C23.4165 64.1601 23.3935 63.8774 23.3473 63.6466C23.305 63.4119 23.2146 63.2234 23.0761 63.0811C22.9415 62.9388 22.7453 62.8676 22.4876 62.8676C22.226 62.8676 22.026 62.9388 21.8875 63.0811C21.7529 63.2234 21.6625 63.4119 21.6163 63.6466C21.574 63.8774 21.5528 64.1601 21.5528 64.4948C21.5528 64.841 21.574 65.1314 21.6163 65.366C21.6625 65.6007 21.7529 65.7892 21.8875 65.9315C22.026 66.0738 22.226 66.145 22.4876 66.145C22.7453 66.145 22.9415 66.0738 23.0761 65.9315C23.2146 65.7892 23.305 65.6007 23.3473 65.366C23.3935 65.1314 23.4165 64.841 23.4165 64.4948Z" fill="white" fill-opacity="0.4"/>
<path d="M28.6634 40.2375C29.1519 39.8452 29.5347 39.524 29.8116 39.2739C30.0886 39.0201 30.3213 38.7566 30.5098 38.4834C30.7022 38.2065 30.7983 37.9353 30.7983 37.6699C30.7983 37.4198 30.7368 37.2237 30.6137 37.0813C30.4944 36.9352 30.3002 36.8621 30.0309 36.8621C29.7693 36.8621 29.5655 36.9448 29.4193 37.1102C29.277 37.2717 29.2 37.4891 29.1885 37.7622H28.6807C28.6961 37.3314 28.8269 36.9986 29.0731 36.764C29.3193 36.5293 29.6366 36.412 30.0251 36.412C30.4213 36.412 30.7349 36.5216 30.9657 36.7409C31.2003 36.9602 31.3176 37.2621 31.3176 37.6468C31.3176 37.9661 31.2215 38.2777 31.0291 38.5815C30.8406 38.8816 30.6252 39.147 30.3829 39.3778C30.1405 39.6048 29.8309 39.8702 29.4539 40.1741H31.4388V40.6126H28.6634V40.2375Z" fill="white" fill-opacity="0.4"/>
<path d="M45.429 23.3814V22.9833L47.4543 20.179H48.0833V22.9256H48.6603V23.3814H48.0833V24.3104H47.564V23.3814H45.429ZM47.587 20.7272L46.0349 22.9256H47.587V20.7272Z" fill="white" fill-opacity="0.4"/>
<path d="M74.3276 14.8802C74.243 14.4532 73.9795 14.2397 73.5371 14.2397C73.1947 14.2397 72.9389 14.3724 72.7697 14.6378C72.6004 14.8994 72.5177 15.3321 72.5216 15.9361C72.6101 15.736 72.7562 15.5803 72.9601 15.4687C73.1678 15.3533 73.3986 15.2956 73.6525 15.2956C74.0487 15.2956 74.3641 15.4187 74.5988 15.6649C74.8373 15.9111 74.9565 16.2515 74.9565 16.6862C74.9565 16.9478 74.9046 17.1824 74.8007 17.3901C74.7007 17.5978 74.5469 17.7633 74.3391 17.8863C74.1353 18.0094 73.8872 18.071 73.5948 18.071C73.1986 18.071 72.8889 17.9825 72.6658 17.8056C72.4427 17.6286 72.2869 17.3844 72.1985 17.0728C72.11 16.7612 72.0657 16.3765 72.0657 15.9188C72.0657 14.507 72.5581 13.8012 73.5429 13.8012C73.9198 13.8012 74.216 13.9031 74.4315 14.107C74.6469 14.3108 74.7738 14.5686 74.8123 14.8802H74.3276ZM73.5429 15.7399C73.3775 15.7399 73.2217 15.7745 73.0755 15.8438C72.9293 15.9091 72.8101 16.0111 72.7178 16.1496C72.6293 16.2842 72.585 16.4496 72.585 16.6458C72.585 16.9381 72.6697 17.1766 72.8389 17.3613C73.0082 17.5421 73.2505 17.6325 73.566 17.6325C73.8352 17.6325 74.0487 17.5498 74.2064 17.3844C74.368 17.2151 74.4488 16.9881 74.4488 16.7035C74.4488 16.4034 74.3718 16.1688 74.218 15.9995C74.0641 15.8264 73.8391 15.7399 73.5429 15.7399Z" fill="white" fill-opacity="0.4"/>
<path d="M98.2483 22.1408C98.0329 22.0561 97.8675 21.933 97.7521 21.7715C97.6367 21.6099 97.579 21.4137 97.579 21.1829C97.579 20.9752 97.6309 20.7887 97.7348 20.6233C97.8386 20.454 97.9925 20.3213 98.1964 20.2251C98.4041 20.1251 98.6541 20.0751 98.9465 20.0751C99.2388 20.0751 99.4869 20.1251 99.6908 20.2251C99.8985 20.3213 100.054 20.454 100.158 20.6233C100.266 20.7887 100.32 20.9752 100.32 21.1829C100.32 21.4061 100.26 21.6022 100.141 21.7715C100.022 21.9369 99.8581 22.06 99.6504 22.1408C99.8889 22.2139 100.077 22.3427 100.216 22.5274C100.358 22.7082 100.429 22.9274 100.429 23.1851C100.429 23.4352 100.368 23.6544 100.245 23.8429C100.122 24.0276 99.9466 24.1718 99.7197 24.2757C99.4965 24.3757 99.2388 24.4257 98.9465 24.4257C98.6541 24.4257 98.3964 24.3757 98.1733 24.2757C97.954 24.1718 97.7828 24.0276 97.6597 23.8429C97.5367 23.6544 97.4751 23.4352 97.4751 23.1851C97.4751 22.9274 97.5443 22.7062 97.6828 22.5216C97.8213 22.337 98.0098 22.21 98.2483 22.1408ZM99.812 21.2464C99.812 21.0118 99.735 20.831 99.5812 20.704C99.4273 20.5771 99.2157 20.5136 98.9465 20.5136C98.681 20.5136 98.4714 20.5771 98.3175 20.704C98.1637 20.831 98.0867 21.0137 98.0867 21.2522C98.0867 21.4676 98.1656 21.6407 98.3233 21.7715C98.4849 21.9023 98.6926 21.9677 98.9465 21.9677C99.2042 21.9677 99.4119 21.9023 99.5696 21.7715C99.7312 21.6369 99.812 21.4618 99.812 21.2464ZM98.9465 22.3716C98.6618 22.3716 98.4291 22.4389 98.2483 22.5735C98.0675 22.7043 97.9771 22.9024 97.9771 23.1678C97.9771 23.414 98.0637 23.6121 98.2368 23.7621C98.4137 23.9122 98.6503 23.9872 98.9465 23.9872C99.2427 23.9872 99.4773 23.9122 99.6504 23.7621C99.8235 23.6121 99.9101 23.414 99.9101 23.1678C99.9101 22.9101 99.8216 22.7139 99.6446 22.5793C99.4677 22.4408 99.235 22.3716 98.9465 22.3716Z" fill="white" fill-opacity="0.4"/>
<path d="M113.697 36.9659V36.487H114.782V40.6588H114.251V36.9659H113.697ZM115.857 38.5296C115.857 37.868 115.964 37.3525 116.18 36.9832C116.395 36.6101 116.772 36.4235 117.311 36.4235C117.845 36.4235 118.22 36.6101 118.436 36.9832C118.651 37.3525 118.759 37.868 118.759 38.5296C118.759 39.2028 118.651 39.7259 118.436 40.0991C118.22 40.4722 117.845 40.6588 117.311 40.6588C116.772 40.6588 116.395 40.4722 116.18 40.0991C115.964 39.7259 115.857 39.2028 115.857 38.5296ZM118.24 38.5296C118.24 38.1949 118.217 37.9122 118.17 37.6814C118.128 37.4468 118.038 37.2583 117.899 37.116C117.765 36.9736 117.568 36.9025 117.311 36.9025C117.049 36.9025 116.849 36.9736 116.711 37.116C116.576 37.2583 116.486 37.4468 116.439 37.6814C116.397 37.9122 116.376 38.1949 116.376 38.5296C116.376 38.8758 116.397 39.1662 116.439 39.4009C116.486 39.6355 116.576 39.824 116.711 39.9663C116.849 40.1087 117.049 40.1798 117.311 40.1798C117.568 40.1798 117.765 40.1087 117.899 39.9663C118.038 39.824 118.128 39.6355 118.17 39.4009C118.217 39.1662 118.24 38.8758 118.24 38.5296Z" fill="white" fill-opacity="0.4"/>
<path d="M121.39 63.4119V62.933H122.475V67.1047H121.944V63.4119H121.39ZM123.486 66.6835C123.975 66.2912 124.358 65.97 124.635 65.7199C124.912 65.466 125.144 65.2025 125.333 64.9294C125.525 64.6525 125.621 64.3813 125.621 64.1159C125.621 63.8658 125.56 63.6696 125.437 63.5273C125.318 63.3811 125.123 63.3081 124.854 63.3081C124.592 63.3081 124.389 63.3908 124.242 63.5562C124.1 63.7177 124.023 63.9351 124.012 64.2082H123.504C123.519 63.7773 123.65 63.4446 123.896 63.21C124.142 62.9753 124.46 62.858 124.848 62.858C125.244 62.858 125.558 62.9676 125.789 63.1869C126.023 63.4061 126.141 63.7081 126.141 64.0928C126.141 64.4121 126.045 64.7236 125.852 65.0275C125.664 65.3276 125.448 65.593 125.206 65.8238C124.964 66.0507 124.654 66.3162 124.277 66.6201H126.262V67.0586H123.486V66.6835Z" fill="white" fill-opacity="0.4"/>
<mask id="path-8-inside-1_707_5892" fill="white">
<path d="M138 66.3555C138 49.2671 131.211 32.8786 119.128 20.7952C107.045 8.71185 90.6562 1.92349 73.5678 1.92349C56.4794 1.92349 40.0908 8.71185 28.0075 20.7952C15.9241 32.8785 9.13574 49.2671 9.13574 66.3555H17.1508C17.1508 51.3928 23.0947 37.0429 33.6749 26.4627C44.2552 15.8824 58.6051 9.93853 73.5678 9.93853C88.5305 9.93853 102.88 15.8825 113.461 26.4627C124.041 37.0429 129.985 51.3928 129.985 66.3555H138Z"/>
</mask>
<path d="M138 66.3555C138 49.2671 131.211 32.8786 119.128 20.7952C107.045 8.71185 90.6562 1.92349 73.5678 1.92349C56.4794 1.92349 40.0908 8.71185 28.0075 20.7952C15.9241 32.8785 9.13574 49.2671 9.13574 66.3555H17.1508C17.1508 51.3928 23.0947 37.0429 33.6749 26.4627C44.2552 15.8824 58.6051 9.93853 73.5678 9.93853C88.5305 9.93853 102.88 15.8825 113.461 26.4627C124.041 37.0429 129.985 51.3928 129.985 66.3555H138Z" stroke="white" stroke-opacity="0.24" stroke-width="38.4669" mask="url(#path-8-inside-1_707_5892)"/>
<mask id="path-9-inside-2_707_5892" fill="white">
<path d="M134.634 66.3555C134.634 50.0323 128.201 34.3775 116.748 22.8352C105.296 11.2929 89.7639 4.8085 73.5682 4.8085C57.3724 4.8085 41.84 11.2929 30.3878 22.8352C18.9357 34.3775 12.502 50.0322 12.502 66.3555H13.4047C13.4047 50.2735 19.7433 34.8502 31.0261 23.4785C42.309 12.1069 57.6118 5.71832 73.5682 5.71832C89.5245 5.71832 104.827 12.1069 116.11 23.4786C127.393 34.8502 133.732 50.2736 133.732 66.3555H134.634Z"/>
</mask>
<path d="M134.634 66.3555C134.634 50.0323 128.201 34.3775 116.748 22.8352C105.296 11.2929 89.7639 4.8085 73.5682 4.8085C57.3724 4.8085 41.84 11.2929 30.3878 22.8352C18.9357 34.3775 12.502 50.0322 12.502 66.3555H13.4047C13.4047 50.2735 19.7433 34.8502 31.0261 23.4785C42.309 12.1069 57.6118 5.71832 73.5682 5.71832C89.5245 5.71832 104.827 12.1069 116.11 23.4786C127.393 34.8502 133.732 50.2736 133.732 66.3555H134.634Z" stroke="white" stroke-width="28.8502" mask="url(#path-9-inside-2_707_5892)"/>
<path d="M25.3445 66.3554H0C0 24.5079 28.8042 4.68201 43.2063 0L55.1821 22.8397C29.3066 32.9141 26.31 54.2467 25.3445 66.3554Z" fill="url(#paint0_linear_707_5892)"/>
<defs>
<linearGradient id="paint0_linear_707_5892" x1="30.2927" y1="0" x2="30.2927" y2="66.3554" gradientUnits="userSpaceOnUse">
<stop stop-color="#31FDFF"/>
<stop offset="0.828125" stop-color="#1A4D81" stop-opacity="0.42"/>
</linearGradient>
</defs>
</svg>
