<svg width="184" height="71" viewBox="0 0 184 71" fill="none" xmlns="http://www.w3.org/2000/svg">
<line y1="70.0456" x2="184" y2="70.0456" stroke="black" stroke-opacity="0.2" stroke-width="1.04545"/>
<path d="M26.1367 70.5677C27.1478 48.6132 41.7883 4.7041 92.2617 4.7041C142.735 4.7041 157.376 48.6132 158.387 70.5677" stroke="black" stroke-opacity="0.2" stroke-width="1.04545" stroke-dasharray="2.61 2.61"/>
<path d="M26.1367 70.5677C27.1478 48.6132 41.7883 4.7041 92.2617 4.7041" stroke="#FAC32D" stroke-width="1.04545" stroke-dasharray="2.61 2.61"/>
<g clip-path="url(#clip0_163_1570)">
<path fill-rule="evenodd" clip-rule="evenodd" d="M91.9508 1.55171V0.620605H92.5716V1.55171H91.9508ZM93.6994 1.85395L94.165 1.04759L94.7026 1.35796L94.237 2.16432L93.6994 1.85395ZM92.2612 7.13836C93.4611 7.13836 94.4338 6.16566 94.4338 4.96578C94.4338 3.76589 93.4611 2.79319 92.2612 2.79319C91.0613 2.79319 90.0886 3.76589 90.0886 4.96578C90.0886 6.16566 91.0613 7.13836 92.2612 7.13836ZM92.2612 7.7591C93.8039 7.7591 95.0545 6.50849 95.0545 4.96578C95.0545 3.42307 93.8039 2.17245 92.2612 2.17245C90.7185 2.17245 89.4679 3.42307 89.4679 4.96578C89.4679 6.50849 90.7185 7.7591 92.2612 7.7591ZM95.6752 4.65541H96.6064V5.27615H95.6752V4.65541ZM95.869 2.5244L95.0627 2.98996L95.373 3.52753L96.1794 3.06198L95.869 2.5244ZM89.8198 1.35796L90.2854 2.16432L90.8229 1.85395L90.3574 1.04759L89.8198 1.35796ZM89.1493 3.52753L88.343 3.06198L88.6534 2.5244L89.4597 2.98996L89.1493 3.52753ZM91.9508 8.37984V9.31095H92.5716V8.37984H91.9508ZM88.8471 4.65541H87.916V5.27615H88.8471V4.65541ZM88.343 6.86957L89.1493 6.40402L89.4597 6.9416L88.6533 7.40715L88.343 6.86957ZM90.2854 7.76728L89.8198 8.57365L90.3574 8.88402L90.823 8.07765L90.2854 7.76728ZM94.165 8.88402L93.6994 8.07765L94.237 7.76728L94.7026 8.57365L94.165 8.88402ZM95.0627 6.9416L95.869 7.40715L96.1794 6.86957L95.373 6.40402L95.0627 6.9416Z" fill="#FAC32D"/>
</g>
<circle cx="92.2605" cy="4.96604" r="2.17259" fill="#DFAC20"/>
<line x1="20.3857" y1="69.7843" x2="31.8857" y2="69.7843" stroke="#FAC32D" stroke-width="1.56818"/>
<line x1="152.637" y1="69.7843" x2="164.137" y2="69.7843" stroke="#FAC32D" stroke-width="1.56818"/>
<path d="M92.0004 5.23413C42.6155 4.60942 27.5143 48.53 26.1367 70.5685H92.0004V5.23413Z" fill="url(#paint0_linear_163_1570)" fill-opacity="0.4"/>
<defs>
<linearGradient id="paint0_linear_163_1570" x1="59.0685" y1="5.22754" x2="59.0685" y2="70.5685" gradientUnits="userSpaceOnUse">
<stop stop-color="#FAC32D"/>
<stop offset="0.479167" stop-color="#FAC32D" stop-opacity="0.32"/>
<stop offset="0.953125" stop-color="#FAC32D" stop-opacity="0"/>
</linearGradient>
<clipPath id="clip0_163_1570">
<rect width="9.93182" height="9.93182" fill="white" transform="translate(87.2949)"/>
</clipPath>
</defs>
</svg>
