<svg width="138" height="131" viewBox="0 0 138 131" fill="none" xmlns="http://www.w3.org/2000/svg">
<path d="M21.0335 64.4949C21.0335 63.8332 21.1412 63.3178 21.3566 62.9485C21.5721 62.5754 21.949 62.3888 22.4876 62.3888C23.0223 62.3888 23.3973 62.5754 23.6127 62.9485C23.8281 63.3178 23.9359 63.8332 23.9359 64.4949C23.9359 65.1681 23.8281 65.6912 23.6127 66.0643C23.3973 66.4375 23.0223 66.624 22.4876 66.624C21.949 66.624 21.5721 66.4375 21.3566 66.0643C21.1412 65.6912 21.0335 65.1681 21.0335 64.4949ZM23.4165 64.4949C23.4165 64.1602 23.3935 63.8775 23.3473 63.6467C23.305 63.412 23.2146 63.2235 23.0761 63.0812C22.9415 62.9389 22.7453 62.8677 22.4876 62.8677C22.226 62.8677 22.026 62.9389 21.8875 63.0812C21.7529 63.2235 21.6625 63.412 21.6163 63.6467C21.574 63.8775 21.5528 64.1602 21.5528 64.4949C21.5528 64.8411 21.574 65.1315 21.6163 65.3662C21.6625 65.6008 21.7529 65.7893 21.8875 65.9316C22.026 66.0739 22.226 66.1451 22.4876 66.1451C22.7453 66.1451 22.9415 66.0739 23.0761 65.9316C23.2146 65.7893 23.305 65.6008 23.3473 65.3662C23.3935 65.1315 23.4165 64.8411 23.4165 64.4949Z" fill="black" fill-opacity="0.4"/>
<path d="M28.6634 40.2375C29.1519 39.8451 29.5347 39.5239 29.8116 39.2739C30.0886 39.02 30.3213 38.7565 30.5098 38.4834C30.7022 38.2064 30.7983 37.9352 30.7983 37.6698C30.7983 37.4198 30.7368 37.2236 30.6137 37.0813C30.4944 36.9351 30.3002 36.862 30.0309 36.862C29.7693 36.862 29.5655 36.9447 29.4193 37.1101C29.277 37.2717 29.2 37.489 29.1885 37.7621H28.6807C28.6961 37.3313 28.8269 36.9986 29.0731 36.7639C29.3193 36.5293 29.6366 36.4119 30.0251 36.4119C30.4213 36.4119 30.7349 36.5216 30.9657 36.7408C31.2003 36.9601 31.3176 37.2621 31.3176 37.6467C31.3176 37.966 31.2215 38.2776 31.0291 38.5815C30.8406 38.8815 30.6252 39.1469 30.3829 39.3777C30.1405 39.6047 29.8309 39.8701 29.4539 40.174H31.4388V40.6125H28.6634V40.2375Z" fill="black" fill-opacity="0.4"/>
<path d="M45.429 23.3816V22.9834L47.4543 20.1792H48.0833V22.9257H48.6603V23.3816H48.0833V24.3105H47.564V23.3816H45.429ZM47.587 20.7274L46.0349 22.9257H47.587V20.7274Z" fill="black" fill-opacity="0.4"/>
<path d="M74.3276 14.8803C74.243 14.4533 73.9795 14.2398 73.5371 14.2398C73.1947 14.2398 72.9389 14.3725 72.7697 14.6379C72.6004 14.8995 72.5177 15.3323 72.5216 15.9362C72.6101 15.7362 72.7562 15.5804 72.9601 15.4688C73.1678 15.3534 73.3986 15.2957 73.6525 15.2957C74.0487 15.2957 74.3641 15.4188 74.5988 15.665C74.8373 15.9112 74.9565 16.2516 74.9565 16.6863C74.9565 16.9479 74.9046 17.1825 74.8007 17.3902C74.7007 17.598 74.5469 17.7634 74.3391 17.8865C74.1353 18.0096 73.8872 18.0711 73.5948 18.0711C73.1986 18.0711 72.8889 17.9826 72.6658 17.8057C72.4427 17.6287 72.2869 17.3845 72.1985 17.0729C72.11 16.7613 72.0657 16.3766 72.0657 15.9189C72.0657 14.5072 72.5581 13.8013 73.5429 13.8013C73.9198 13.8013 74.216 13.9032 74.4315 14.1071C74.6469 14.311 74.7738 14.5687 74.8123 14.8803H74.3276ZM73.5429 15.74C73.3775 15.74 73.2217 15.7746 73.0755 15.8439C72.9293 15.9093 72.8101 16.0112 72.7178 16.1497C72.6293 16.2843 72.585 16.4497 72.585 16.6459C72.585 16.9383 72.6697 17.1768 72.8389 17.3614C73.0082 17.5422 73.2505 17.6326 73.566 17.6326C73.8352 17.6326 74.0487 17.5499 74.2064 17.3845C74.368 17.2152 74.4488 16.9883 74.4488 16.7036C74.4488 16.4036 74.3718 16.1689 74.218 15.9997C74.0641 15.8266 73.8391 15.74 73.5429 15.74Z" fill="black" fill-opacity="0.4"/>
<path d="M98.2483 22.141C98.0329 22.0564 97.8675 21.9333 97.7521 21.7717C97.6367 21.6102 97.579 21.414 97.579 21.1832C97.579 20.9755 97.6309 20.7889 97.7348 20.6235C97.8386 20.4542 97.9925 20.3215 98.1964 20.2254C98.4041 20.1253 98.6541 20.0753 98.9465 20.0753C99.2388 20.0753 99.4869 20.1253 99.6908 20.2254C99.8985 20.3215 100.054 20.4542 100.158 20.6235C100.266 20.7889 100.32 20.9755 100.32 21.1832C100.32 21.4063 100.26 21.6025 100.141 21.7717C100.022 21.9371 99.8581 22.0602 99.6504 22.141C99.8889 22.2141 100.077 22.343 100.216 22.5276C100.358 22.7084 100.429 22.9277 100.429 23.1854C100.429 23.4354 100.368 23.6547 100.245 23.8432C100.122 24.0278 99.9466 24.1721 99.7197 24.2759C99.4965 24.3759 99.2388 24.4259 98.9465 24.4259C98.6541 24.4259 98.3964 24.3759 98.1733 24.2759C97.954 24.1721 97.7828 24.0278 97.6597 23.8432C97.5367 23.6547 97.4751 23.4354 97.4751 23.1854C97.4751 22.9277 97.5443 22.7065 97.6828 22.5218C97.8213 22.3372 98.0098 22.2103 98.2483 22.141ZM99.812 21.2467C99.812 21.012 99.735 20.8312 99.5812 20.7043C99.4273 20.5773 99.2157 20.5139 98.9465 20.5139C98.681 20.5139 98.4714 20.5773 98.3175 20.7043C98.1637 20.8312 98.0867 21.0139 98.0867 21.2524C98.0867 21.4678 98.1656 21.6409 98.3233 21.7717C98.4849 21.9025 98.6926 21.9679 98.9465 21.9679C99.2042 21.9679 99.4119 21.9025 99.5696 21.7717C99.7312 21.6371 99.812 21.4621 99.812 21.2467ZM98.9465 22.3718C98.6618 22.3718 98.4291 22.4391 98.2483 22.5738C98.0675 22.7046 97.9771 22.9027 97.9771 23.1681C97.9771 23.4143 98.0637 23.6124 98.2368 23.7624C98.4137 23.9124 98.6503 23.9874 98.9465 23.9874C99.2427 23.9874 99.4773 23.9124 99.6504 23.7624C99.8235 23.6124 99.9101 23.4143 99.9101 23.1681C99.9101 22.9104 99.8216 22.7142 99.6446 22.5795C99.4677 22.4411 99.235 22.3718 98.9465 22.3718Z" fill="black" fill-opacity="0.4"/>
<path d="M113.697 36.9659V36.487H114.782V40.6587H114.251V36.9659H113.697ZM115.857 38.5295C115.857 37.8679 115.964 37.3525 116.18 36.9832C116.395 36.6101 116.772 36.4235 117.311 36.4235C117.845 36.4235 118.22 36.6101 118.436 36.9832C118.651 37.3525 118.759 37.8679 118.759 38.5295C118.759 39.2027 118.651 39.7259 118.436 40.099C118.22 40.4721 117.845 40.6587 117.311 40.6587C116.772 40.6587 116.395 40.4721 116.18 40.099C115.964 39.7259 115.857 39.2027 115.857 38.5295ZM118.24 38.5295C118.24 38.1949 118.217 37.9122 118.17 37.6814C118.128 37.4467 118.038 37.2582 117.899 37.1159C117.765 36.9736 117.568 36.9024 117.311 36.9024C117.049 36.9024 116.849 36.9736 116.711 37.1159C116.576 37.2582 116.486 37.4467 116.439 37.6814C116.397 37.9122 116.376 38.1949 116.376 38.5295C116.376 38.8758 116.397 39.1662 116.439 39.4008C116.486 39.6355 116.576 39.824 116.711 39.9663C116.849 40.1086 117.049 40.1798 117.311 40.1798C117.568 40.1798 117.765 40.1086 117.899 39.9663C118.038 39.824 118.128 39.6355 118.17 39.4008C118.217 39.1662 118.24 38.8758 118.24 38.5295Z" fill="black" fill-opacity="0.4"/>
<path d="M121.39 63.4122V62.9332H122.475V67.105H121.944V63.4122H121.39ZM123.486 66.6838C123.975 66.2914 124.358 65.9702 124.635 65.7202C124.912 65.4663 125.144 65.2028 125.333 64.9297C125.525 64.6527 125.621 64.3815 125.621 64.1161C125.621 63.8661 125.56 63.6699 125.437 63.5276C125.318 63.3814 125.123 63.3083 124.854 63.3083C124.592 63.3083 124.389 63.391 124.242 63.5564C124.1 63.718 124.023 63.9353 124.012 64.2084H123.504C123.519 63.7776 123.65 63.4449 123.896 63.2102C124.142 62.9756 124.46 62.8582 124.848 62.8582C125.244 62.8582 125.558 62.9679 125.789 63.1871C126.023 63.4064 126.141 63.7084 126.141 64.093C126.141 64.4123 126.045 64.7239 125.852 65.0278C125.664 65.3278 125.448 65.5932 125.206 65.824C124.964 66.051 124.654 66.3164 124.277 66.6203H126.262V67.0588H123.486V66.6838Z" fill="black" fill-opacity="0.4"/>
<mask id="path-8-inside-1_163_1557" fill="white">
<path d="M138 66.3554C138 49.2669 131.211 32.8784 119.128 20.7951C107.045 8.7117 90.6562 1.92334 73.5678 1.92334C56.4794 1.92334 40.0908 8.71169 28.0075 20.795C15.9241 32.8784 9.13574 49.2669 9.13574 66.3554H17.1508C17.1508 51.3927 23.0947 37.0428 33.6749 26.4625C44.2552 15.8823 58.6051 9.93838 73.5678 9.93838C88.5305 9.93838 102.88 15.8823 113.461 26.4625C124.041 37.0428 129.985 51.3927 129.985 66.3554H138Z"/>
</mask>
<path d="M138 66.3554C138 49.2669 131.211 32.8784 119.128 20.7951C107.045 8.7117 90.6562 1.92334 73.5678 1.92334C56.4794 1.92334 40.0908 8.71169 28.0075 20.795C15.9241 32.8784 9.13574 49.2669 9.13574 66.3554H17.1508C17.1508 51.3927 23.0947 37.0428 33.6749 26.4625C44.2552 15.8823 58.6051 9.93838 73.5678 9.93838C88.5305 9.93838 102.88 15.8823 113.461 26.4625C124.041 37.0428 129.985 51.3927 129.985 66.3554H138Z" stroke="black" stroke-opacity="0.24" stroke-width="38.4669" mask="url(#path-8-inside-1_163_1557)"/>
<mask id="path-9-inside-2_163_1557" fill="white">
<path d="M134.634 66.3556C134.634 50.0323 128.201 34.3776 116.748 22.8353C105.296 11.293 89.7639 4.80859 73.5682 4.80859C57.3724 4.80859 41.84 11.293 30.3878 22.8353C18.9357 34.3776 12.502 50.0323 12.502 66.3556H13.4047C13.4047 50.2736 19.7433 34.8503 31.0261 23.4786C42.309 12.107 57.6118 5.71841 73.5682 5.71841C89.5245 5.71841 104.827 12.107 116.11 23.4786C127.393 34.8503 133.732 50.2736 133.732 66.3556H134.634Z"/>
</mask>
<path d="M134.634 66.3556C134.634 50.0323 128.201 34.3776 116.748 22.8353C105.296 11.293 89.7639 4.80859 73.5682 4.80859C57.3724 4.80859 41.84 11.293 30.3878 22.8353C18.9357 34.3776 12.502 50.0323 12.502 66.3556H13.4047C13.4047 50.2736 19.7433 34.8503 31.0261 23.4786C42.309 12.107 57.6118 5.71841 73.5682 5.71841C89.5245 5.71841 104.827 12.107 116.11 23.4786C127.393 34.8503 133.732 50.2736 133.732 66.3556H134.634Z" stroke="white" stroke-width="28.8502" mask="url(#path-9-inside-2_163_1557)"/>
<path d="M25.3445 66.3554H0C0 24.5079 28.8042 4.68201 43.2063 0L55.1821 22.8397C29.3066 32.9141 26.31 54.2467 25.3445 66.3554Z" fill="url(#paint0_linear_163_1557)"/>
<defs>
<linearGradient id="paint0_linear_163_1557" x1="30.2927" y1="0" x2="30.2927" y2="66.3554" gradientUnits="userSpaceOnUse">
<stop stop-color="#31FDFF"/>
<stop offset="0.828125" stop-color="#1A4D81" stop-opacity="0.42"/>
</linearGradient>
</defs>
</svg>
