<svg width="28" height="27" viewBox="0 0 28 27" fill="none" xmlns="http://www.w3.org/2000/svg">
<path d="M26.9993 18.2272C26.9993 22.8009 23.3002 26.4999 18.7266 26.4999L19.9675 24.4318" stroke="white" stroke-opacity="0.7" stroke-linecap="round" stroke-linejoin="round"/>
<path d="M1 8.77278C1 4.19915 4.69909 0.500057 9.27272 0.500057L8.03181 2.56824" stroke="white" stroke-opacity="0.7" stroke-linecap="round" stroke-linejoin="round"/>
<path d="M17.3688 17.4709C17.3688 21.5009 14.107 24.7626 10.077 24.7626C6.04697 24.7626 2.78516 21.5009 2.78516 17.4709C2.78516 13.4409 6.04697 10.179 10.077 10.179C10.2661 10.179 10.4433 10.1908 10.6442 10.2027C14.2252 10.4745 17.0851 13.3344 17.357 16.9154C17.357 17.0926 17.3688 17.27 17.3688 17.4709Z" stroke="white" stroke-opacity="0.7" stroke-miterlimit="10" stroke-linecap="round" stroke-linejoin="round"/>
<path d="M25.2282 9.60011C25.2282 13.6301 21.9663 16.892 17.9363 16.892H17.3573C17.0854 13.311 14.2254 10.451 10.6445 10.1792V9.60011C10.6445 5.57011 13.9063 2.30832 17.9363 2.30832C21.9663 2.30832 25.2282 5.57011 25.2282 9.60011Z" stroke="white" stroke-opacity="0.7" stroke-miterlimit="10" stroke-linecap="round" stroke-linejoin="round"/>
</svg>
