<svg width="64" height="64" viewBox="0 0 64 64" fill="none" xmlns="http://www.w3.org/2000/svg">
<path d="M38.8844 38.1165C39.0957 38.3278 39.0957 38.6712 38.8844 38.8825C38.7783 38.9886 38.6396 39.0406 38.5009 39.0406C38.3623 39.0406 38.2236 38.9876 38.1174 38.8825L32.0009 32.7659L25.8844 38.8825C25.7783 38.9886 25.6396 39.0406 25.5009 39.0406C25.3623 39.0406 25.2236 38.9876 25.1174 38.8825C24.9062 38.6712 24.9062 38.3278 25.1174 38.1165L31.2339 32L25.1174 25.8835C24.9062 25.6723 24.9062 25.3288 25.1174 25.1176C25.3287 24.9063 25.6721 24.9063 25.8833 25.1176L31.9998 31.2341L38.1163 25.1176C38.3276 24.9063 38.671 24.9063 38.8823 25.1176C39.0935 25.3288 39.0935 25.6723 38.8823 25.8835L32.7668 32L38.8844 38.1165Z" fill="white"/>
</svg>
