<svg width="26" height="26" viewBox="0 0 26 26" fill="none" xmlns="http://www.w3.org/2000/svg">
<path d="M19.8844 19.1166C20.0957 19.3279 20.0957 19.6713 19.8844 19.8826C19.7783 19.9887 19.6396 20.0407 19.5009 20.0407C19.3623 20.0407 19.2236 19.9876 19.1174 19.8826L13.0009 13.766L6.88443 19.8826C6.77826 19.9887 6.63959 20.0407 6.50093 20.0407C6.36226 20.0407 6.22359 19.9876 6.11742 19.8826C5.90617 19.6713 5.90617 19.3279 6.11742 19.1166L12.2339 13.0001L6.11742 6.88362C5.90617 6.67237 5.90617 6.32892 6.11742 6.11767C6.32867 5.90642 6.67209 5.90642 6.88334 6.11767L12.9998 12.2342L19.1163 6.11767C19.3276 5.90642 19.671 5.90642 19.8823 6.11767C20.0935 6.32892 20.0935 6.67237 19.8823 6.88362L13.7668 13.0001L19.8844 19.1166Z" fill="black"/>
</svg>
