<svg width="28" height="27" viewBox="0 0 28 27" fill="none" xmlns="http://www.w3.org/2000/svg">
<path d="M26.9993 18.2271C26.9993 22.8007 23.3002 26.4998 18.7266 26.4998L19.9675 24.4316" stroke="black" stroke-opacity="0.7" stroke-linecap="round" stroke-linejoin="round"/>
<path d="M1 8.77272C1 4.19909 4.69909 0.5 9.27272 0.5L8.03181 2.56818" stroke="black" stroke-opacity="0.7" stroke-linecap="round" stroke-linejoin="round"/>
<path d="M17.3688 17.4706C17.3688 21.5006 14.107 24.7623 10.077 24.7623C6.04697 24.7623 2.78516 21.5006 2.78516 17.4706C2.78516 13.4406 6.04697 10.1787 10.077 10.1787C10.2661 10.1787 10.4433 10.1906 10.6442 10.2024C14.2252 10.4742 17.0851 13.3342 17.357 16.9151C17.357 17.0923 17.3688 17.2697 17.3688 17.4706Z" stroke="black" stroke-opacity="0.7" stroke-miterlimit="10" stroke-linecap="round" stroke-linejoin="round"/>
<path d="M25.2282 9.5999C25.2282 13.6299 21.9663 16.8917 17.9363 16.8917H17.3573C17.0854 13.3108 14.2254 10.4508 10.6445 10.179V9.5999C10.6445 5.5699 13.9063 2.30811 17.9363 2.30811C21.9663 2.30811 25.2282 5.5699 25.2282 9.5999Z" stroke="black" stroke-opacity="0.7" stroke-miterlimit="10" stroke-linecap="round" stroke-linejoin="round"/>
</svg>
