<svg width="68" height="80" viewBox="0 0 68 80" fill="none" xmlns="http://www.w3.org/2000/svg">
<path d="M21.708 33.5002C21.708 33.2012 21.9507 32.9585 22.2497 32.9585H41.7497C42.0487 32.9585 42.2913 33.2012 42.2913 33.5002C42.2913 33.7992 42.0487 34.0418 41.7497 34.0418H22.2497C21.9507 34.0418 21.708 33.7992 21.708 33.5002ZM41.7497 39.4585H22.2497C21.9507 39.4585 21.708 39.7012 21.708 40.0002C21.708 40.2992 21.9507 40.5418 22.2497 40.5418H41.7497C42.0487 40.5418 42.2913 40.2992 42.2913 40.0002C42.2913 39.7012 42.0487 39.4585 41.7497 39.4585ZM41.7497 45.9585H22.2497C21.9507 45.9585 21.708 46.2012 21.708 46.5002C21.708 46.7992 21.9507 47.0418 22.2497 47.0418H41.7497C42.0487 47.0418 42.2913 46.7992 42.2913 46.5002C42.2913 46.2012 42.0487 45.9585 41.7497 45.9585Z" fill="black"/>
</svg>
