<svg width="17" height="17" viewBox="0 0 17 17" fill="none" xmlns="http://www.w3.org/2000/svg">
<path d="M8.49967 13.1043C11.0425 13.1043 13.1038 11.043 13.1038 8.50016C13.1038 5.95735 11.0425 3.896 8.49967 3.896C5.95686 3.896 3.89551 5.95735 3.89551 8.50016C3.89551 11.043 5.95686 13.1043 8.49967 13.1043Z" stroke="black" stroke-width="1.5" stroke-linecap="round" stroke-linejoin="round"/>
<path d="M13.5578 13.5573L13.4657 13.4653M13.4657 3.53442L13.5578 3.44234L13.4657 3.53442ZM3.44283 13.5573L3.53491 13.4653L3.44283 13.5573ZM8.50033 1.47317V1.4165V1.47317ZM8.50033 15.5832V15.5265V15.5832ZM1.47366 8.49984H1.41699H1.47366ZM15.5837 8.49984H15.527H15.5837ZM3.53491 3.53442L3.44283 3.44234L3.53491 3.53442Z" stroke="black" stroke-width="2" stroke-linecap="round" stroke-linejoin="round"/>
</svg>
